<svg id="Layer_1" data-name="Layer 1" xmlns="http://www.w3.org/2000/svg" viewBox="0 0 1024 1024"><defs><style>.cls-1,.cls-6{fill:#2e3192;}.cls-2{fill:#fff;}.cls-3{fill:none;stroke:#fff;stroke-linecap:round;stroke-miterlimit:10;stroke-width:10px;stroke-dasharray:14 24;}.cls-4{fill:#be1e2d;}.cls-5{fill:#231f20;}.cls-6{fill-rule:evenodd;}</style></defs><title>1024by1024</title><circle class="cls-1" cx="518.88" cy="512" r="505.12"/><path class="cls-2" d="M111.2,357l-1.73,31.62,53.15,42.63-54.82-12-1.54,28.19,16.21,22.07s-23-10.83-26.49-12.1a2.3,2.3,0,0,0-.39-.15L68.32,467.55l19.09-19.87a9.61,9.61,0,0,1,0-1.21l1.51-27.55-55.2,5.34L90.54,388.8l1.8-32.8a9.44,9.44,0,1,1,18.86,1Z"/><path class="cls-3" d="M98.16,505.16c0,232.34,188.36,420.72,420.72,420.72S939.6,737.5,939.6,505.16"/><circle class="cls-2" cx="518.88" cy="512.29" r="349.81"/><circle class="cls-4" cx="938.95" cy="470.68" r="27.36"/><circle class="cls-5" cx="938.95" cy="470.68" r="11.5"/><path class="cls-6" d="M285.45,674.63v75.19H621V661ZM637.1,301.79c-2.1,145.62,4.42,302.41,2.32,448H752.56V391.89c-26.88-36.44-70.65-74.38-115.46-90.1ZM285.45,382c.82,26.76-2.44,54.35-1.63,81.12C364.84,400.74,469.48,360.46,621,382V295.62C522.44,268,414.42,280.26,285.45,382Zm0,100.1v76.59Q425.13,477.31,621,506.78v-90.1c-107-21.65-218.6-1.74-335.58,65.42Zm0,93.24v80.19c109-28.28,220.11-32.93,335.58-28.28V537c-121.17-11.17-232.33,3.38-335.58,38.3Z"/><path class="cls-2" d="M311.22,93.61c4.27-2.73,13.38-7.09,22.18-10.52,10.77-4.2,17.77-5.74,24.76-4.59A18.24,18.24,0,0,1,373.5,90.12c2.71,6.95,1.19,15-6.35,21.69l.1.23c9.86-1.05,19.08,3.09,23,13.17a22.29,22.29,0,0,1-1.64,19.72c-3.91,6.73-12.41,13-27.93,19a144.49,144.49,0,0,1-19.56,6.29Zm42.65,57.67a59.14,59.14,0,0,0,6.93-2.43c8-3.12,13.87-8.88,10.67-17.11-3.08-7.87-11.36-8.24-20.16-4.81l-6,2.35Zm-13.51-34.62,5.79-2.26c9.26-3.61,12.75-9.38,10.49-15.16s-8-7.27-16-4.16a52.28,52.28,0,0,0-7.34,3.4Z"/><path class="cls-2" d="M461,102.83c4.56,21.78-8.8,35-24.73,38.34-17.4,3.65-33.18-5-37.21-24.21s6-34.16,25.15-38.17C442.48,75,457.27,85,461,102.83Zm-42.94,9.64c2.14,10.22,8,17,15.91,15.33,7.18-1.5,10.3-9.65,8.05-20.35-1.86-8.88-7.15-17.17-15.54-15.41C417.61,93.9,416.24,103.71,418.08,112.47Z"/><path class="cls-2" d="M534.75,98.69c1,22.23-14.32,33.13-30.59,33.86-17.75.79-31.94-10.27-32.82-29.89s11.47-32.75,31-33.62C520.94,68.2,533.93,80.44,534.75,98.69Zm-43.93,2.6c.46,10.43,5.16,18.06,13.23,17.7,7.33-.33,11.72-7.87,11.23-18.8-.41-9.07-4.29-18.1-12.86-17.72C493.35,82.88,490.41,92.35,490.82,101.29Z"/><path class="cls-2" d="M567.41,97.6l.24,0c1.64-2.32,3.39-4.63,5.14-6.81L587,74l22.61,2.52-24.34,22L606,137.3l-23.1-2.58L571.1,108.27l-5.48,5.39-2.11,18.91-18.78-2.09,9.77-87.72,18.78,2.09Z"/><path class="cls-2" d="M606.25,137.82l3-11,12.53-6.42c21.14-10.68,31.78-17.22,34.47-26.28,1.7-6.36-.79-12.43-9.79-14.85-6.72-1.8-13.51,0-18.43,2l-1.65-14.47c7.08-2.86,17.17-4,27.74-1.18,17.64,4.74,24.6,17.67,20.8,31.84-3.52,13.09-15.81,21-29.8,28l-8.81,4.07-.07.24,29.42,7.9-4,15Z"/><path class="cls-2" d="M700.4,169l7.78-17.64-32.76-14.44,5-11.26,47.84-32.7,21.16,9.32-19.11,43.34,8.87,3.91-5.71,13-8.88-3.91-7.77,17.63Zm13.49-30.6L721.12,122c2-4.44,4.18-8.89,6.63-13.51l-.45-.2C722.8,112,719,115.46,714.4,119l-17,11.79-.1.22Z"/><path class="cls-2" d="M483.38,809.54l-76,10c-11.77,1.55-21.66-8.94-22-23.3l-4.09-192c-.31-14.36,9.07-27.38,20.85-28.93l76-10c11.77-1.55,21.66,8.94,22,23.3l4.1,192C504.53,795,495.15,808,483.38,809.54Z"/></svg>