<svg id="Layer_1" data-name="Layer 1" xmlns="http://www.w3.org/2000/svg" viewBox="0 0 1024 1024"><defs><style>.cls-1,.cls-6{fill:#00a651;}.cls-2{fill:#fff;}.cls-3{fill:none;stroke:#fff;stroke-linecap:round;stroke-miterlimit:10;stroke-width:10px;stroke-dasharray:14 24;}.cls-4{fill:#be1e2d;}.cls-5{fill:#231f20;}.cls-6{fill-rule:evenodd;}</style></defs><title>1024by1024</title><circle class="cls-1" cx="518.88" cy="512.77" r="505.12"/><path class="cls-2" d="M111.2,357.8l-1.73,31.62,53.15,42.63-54.82-12-1.54,28.19,16.21,22.07s-23-10.83-26.49-12.1a2.3,2.3,0,0,0-.39-.15L68.32,468.32l19.09-19.87a9.61,9.61,0,0,1,0-1.21l1.51-27.55L33.7,425l56.84-35.46,1.8-32.8a9.44,9.44,0,1,1,18.86,1Z"/><path class="cls-3" d="M98.16,505.93c0,232.34,188.36,420.72,420.72,420.72S939.6,738.27,939.6,505.93"/><circle class="cls-2" cx="518.88" cy="513.06" r="349.81"/><circle class="cls-4" cx="938.95" cy="471.45" r="27.36"/><circle class="cls-5" cx="938.95" cy="471.45" r="11.5"/><path class="cls-6" d="M285.45,675.4v75.19H621V661.78ZM637.1,302.56c-2.1,145.62,4.42,302.41,2.32,448H752.56V392.66c-26.88-36.44-70.65-74.38-115.46-90.1Zm-351.65,80.2c.82,26.77-2.44,54.36-1.63,81.13,81-62.38,185.66-102.66,337.21-81.13V296.39C522.44,268.81,414.42,281,285.45,382.76Zm0,100.11v76.59Q425.13,478.08,621,507.55v-90.1c-107-21.65-218.6-1.74-335.58,65.42Zm0,93.24V656.3C394.4,628,505.56,623.37,621,628V537.81c-121.17-11.17-232.33,3.38-335.58,38.3Z"/><path d="M311.22,94.38c4.27-2.73,13.38-7.09,22.18-10.52,10.77-4.2,17.77-5.74,24.76-4.59A18.24,18.24,0,0,1,373.5,90.89c2.71,7,1.19,15-6.35,21.69l.1.23c9.86-1,19.08,3.09,23,13.17a22.29,22.29,0,0,1-1.64,19.72c-3.91,6.73-12.41,13-27.93,19A144.49,144.49,0,0,1,341.13,171Zm42.65,57.67a59.14,59.14,0,0,0,6.93-2.43c8-3.12,13.87-8.88,10.67-17.11-3.08-7.87-11.36-8.24-20.16-4.81l-6,2.35Zm-13.51-34.62,5.79-2.26c9.26-3.61,12.75-9.38,10.49-15.17s-8-7.26-16-4.15a52.28,52.28,0,0,0-7.34,3.4Z"/><path d="M461,103.6c4.56,21.78-8.8,35-24.73,38.34-17.4,3.64-33.18-5-37.21-24.21s6-34.16,25.15-38.17C442.48,75.74,457.27,85.72,461,103.6Zm-42.94,9.64c2.14,10.22,8,17,15.91,15.33,7.18-1.5,10.3-9.65,8.05-20.35-1.86-8.88-7.15-17.17-15.54-15.41C417.61,94.67,416.24,104.48,418.08,113.24Z"/><path d="M534.75,99.46c1,22.23-14.32,33.13-30.59,33.86-17.75.79-31.94-10.27-32.82-29.89s11.47-32.75,31-33.62C520.94,69,533.93,81.21,534.75,99.46Zm-43.93,2.6c.46,10.43,5.16,18.06,13.23,17.7,7.33-.33,11.72-7.87,11.23-18.8-.41-9.07-4.29-18.1-12.86-17.72C493.35,83.65,490.41,93.12,490.82,102.06Z"/><path d="M567.41,98.37l.24,0c1.64-2.32,3.39-4.63,5.14-6.81L587,74.79l22.61,2.52-24.34,22L606,138.07l-23.1-2.58L571.1,109l-5.48,5.39-2.11,18.9-18.78-2.08,9.77-87.72,18.78,2.09Z"/><path d="M606.25,138.59l3-11,12.53-6.42c21.14-10.68,31.78-17.22,34.47-26.28,1.7-6.36-.79-12.43-9.79-14.85-6.72-1.8-13.51,0-18.43,2l-1.65-14.47c7.08-2.86,17.17-4,27.74-1.18,17.64,4.74,24.6,17.67,20.8,31.84-3.52,13.09-15.81,21-29.8,28l-8.81,4.07-.07.24,29.42,7.9-4,15Z"/><path d="M700.4,169.72l7.78-17.63-32.76-14.44,5-11.26,47.84-32.7L749.38,103l-19.11,43.34,8.87,3.91-5.71,13-8.88-3.91L716.78,177Zm13.49-30.59,7.23-16.38c2-4.44,4.18-8.89,6.63-13.51l-.45-.2c-4.5,3.72-8.34,7.19-12.9,10.75l-17,11.79-.1.22Z"/><path class="cls-2" d="M483.38,810.31l-76,10c-11.77,1.56-21.66-8.93-22-23.29L381.3,605c-.31-14.36,9.07-27.38,20.85-28.93l76-10c11.77-1.55,21.66,8.94,22,23.3l4.1,192C504.53,795.74,495.15,808.76,483.38,810.31Z"/></svg>