<svg id="Layer_1" data-name="Layer 1" xmlns="http://www.w3.org/2000/svg" viewBox="0 0 512 512"><defs><style>.cls-1,.cls-6{fill:#00a651;}.cls-2{fill:#fff;}.cls-3{fill:none;stroke:#fff;stroke-linecap:round;stroke-miterlimit:10;stroke-width:10px;stroke-dasharray:14 24;}.cls-4{fill:#be1e2d;}.cls-5{fill:#231f20;}.cls-6{fill-rule:evenodd;}</style></defs><title>512by512</title><circle class="cls-1" cx="257.05" cy="255.95" r="250.95"/><path class="cls-2" d="M54.52,179l-.86,15.71,26.4,21.18L52.83,209.9l-.77,14,8.06,11s-11.43-5.37-13.16-6l-.2-.08-13.55,5.08L42.7,224a4,4,0,0,1,0-.6l.75-13.68L16,212.36l28.24-17.62.89-16.29a4.69,4.69,0,1,1,9.37.51Z"/><path class="cls-3" d="M48,252.55c0,115.42,93.58,209,209,209s209-93.59,209-209"/><circle class="cls-2" cx="257.05" cy="256.09" r="173.79"/><circle class="cls-4" cx="465.74" cy="235.42" r="13.59"/><circle class="cls-5" cx="465.74" cy="235.42" r="5.71"/><path class="cls-6" d="M141.09,336.74V374.1H307.8V330Zm174.7-185.22c-1.05,72.34,2.19,150.23,1.15,222.58h56.21V196.27c-13.36-18.1-35.1-37-57.36-44.75Zm-174.7,39.84c.4,13.3-1.22,27-.81,40.3,40.25-31,92.23-51,167.52-40.3V148.45c-49-13.71-102.64-7.63-166.71,42.91Zm0,49.73v38q69.39-40.42,166.71-25.79V208.59c-53.14-10.76-108.6-.87-166.71,32.5Zm0,46.32v39.84c54.12-14.05,109.35-16.36,166.71-14.05V268.39c-60.19-5.56-115.42,1.67-166.71,19Z"/><path d="M153.89,48.09a75.23,75.23,0,0,1,11-5.23c5.35-2.09,8.83-2.85,12.3-2.28a9.06,9.06,0,0,1,7.62,5.78c1.35,3.45.59,7.45-3.15,10.77l0,.12c4.9-.52,9.48,1.53,11.44,6.54a11.08,11.08,0,0,1-.82,9.79C190.4,76.93,186.18,80,178.47,83a71.28,71.28,0,0,1-9.72,3.13Zm21.19,28.65a28.39,28.39,0,0,0,3.44-1.21c4-1.55,6.89-4.41,5.3-8.5-1.53-3.91-5.64-4.09-10-2.39l-3,1.17Zm-6.71-17.2,2.87-1.12c4.61-1.8,6.34-4.66,5.22-7.54s-4-3.61-8-2.06a25.55,25.55,0,0,0-3.65,1.69Z"/><path d="M228.31,52.67c2.27,10.82-4.37,17.39-12.29,19-8.64,1.81-16.48-2.48-18.48-12s3-17,12.49-19C219.1,38.83,226.45,43.79,228.31,52.67ZM207,57.46c1.06,5.08,4,8.44,7.9,7.62,3.57-.75,5.12-4.8,4-10.12-.92-4.41-3.55-8.53-7.72-7.65C206.75,48.23,206.06,53.11,207,57.46Z"/><path d="M264.94,50.62c.5,11-7.11,16.45-15.2,16.81-8.82.4-15.87-5.1-16.3-14.84s5.7-16.27,15.38-16.71C258.08,35.47,264.53,41.54,264.94,50.62ZM243.11,51.9c.24,5.19,2.57,9,6.58,8.8,3.64-.17,5.82-3.91,5.58-9.34-.2-4.51-2.14-9-6.39-8.8C244.37,42.76,242.91,47.46,243.11,51.9Z"/><path d="M281.16,50.07l.13,0c.81-1.16,1.68-2.3,2.55-3.39l7.08-8.34,11.23,1.25-12.09,11,10.28,19.23-11.48-1.27L283,55.37l-2.73,2.68-1,9.39-9.33-1,4.85-43.57,9.33,1Z"/><path d="M300.46,70.05l1.47-5.48,6.23-3.19c10.5-5.3,15.79-8.55,17.12-13.06.85-3.16-.38-6.17-4.86-7.37a14.55,14.55,0,0,0-9.15,1l-.82-7.19a22.31,22.31,0,0,1,13.78-.59C333,36.52,336.45,42.94,334.56,50c-1.75,6.5-7.85,10.43-14.8,13.93l-4.38,2,0,.12L330,70l-2,7.45Z"/><path d="M347.24,85.52l3.86-8.76-16.28-7.17,2.47-5.6,23.77-16.25,10.51,4.64-9.49,21.53,4.4,1.94-2.84,6.44-4.41-1.94-3.86,8.76Zm6.7-15.2,3.59-8.14c1-2.2,2.08-4.41,3.29-6.71l-.22-.1c-2.24,1.85-4.14,3.57-6.41,5.34l-8.45,5.86-.05.11Z"/><path class="cls-2" d="M239.42,403.77l-37.77,5c-5.85.77-10.76-4.44-10.91-11.57l-2-95.39c-.15-7.13,4.51-13.6,10.36-14.37l37.77-5c5.85-.77,10.76,4.44,10.91,11.58l2,95.38C249.93,396.53,245.27,403,239.42,403.77Z"/></svg>