<svg id="Layer_1" data-name="Layer 1" xmlns="http://www.w3.org/2000/svg" viewBox="0 0 512 512"><defs><style>.cls-1{fill:#fff;}.cls-2,.cls-6{fill:#2e3192;}.cls-3{fill:none;stroke:#fff;stroke-linecap:round;stroke-miterlimit:10;stroke-width:10px;stroke-dasharray:14 24;}.cls-4{fill:#be1e2d;}.cls-5{fill:#231f20;}.cls-6{fill-rule:evenodd;}</style></defs><title>512by512</title><path class="cls-1" d="M58.24,179.27l-.85,15.64L83.68,216l-27.12-5.93L55.79,224l8,10.92s-11.39-5.36-13.11-6l-.19-.08L37,234l9.45-9.83a4,4,0,0,1,0-.6l.74-13.63-27.31,2.65L48,195l.89-16.23a4.68,4.68,0,0,1,4.92-4.42,4.8,4.8,0,0,1,3.23,1.55A4.72,4.72,0,0,1,58.24,179.27Z"/><circle class="cls-2" cx="256.59" cy="255.95" r="249.95"/><path class="cls-1" d="M54.86,179.27,54,194.91,80.3,216l-27.13-5.93L52.41,224l8,10.92s-11.38-5.36-13.1-6l-.2-.08L33.64,234l9.44-9.83a4,4,0,0,1,0-.6l.74-13.63-27.31,2.65L44.64,195l.88-16.23a4.68,4.68,0,0,1,4.92-4.42,4.68,4.68,0,0,1,4.42,4.93Z"/><path class="cls-3" d="M48.4,252.56c0,115,93.21,208.19,208.19,208.19s208.18-93.22,208.18-208.19"/><circle class="cls-1" cx="256.59" cy="256.09" r="173.1"/><circle class="cls-4" cx="464.45" cy="235.5" r="13.54"/><circle class="cls-5" cx="464.45" cy="235.5" r="5.69"/><path class="cls-6" d="M141.08,336.42v37.21h166V329.68Zm174-184.49c-1,72.06,2.19,149.64,1.16,221.7h56V196.51c-13.3-18-35-36.8-57.14-44.58Zm-174,39.69c.4,13.24-1.21,26.9-.81,40.14,40.09-30.87,91.87-50.8,166.86-40.14V148.88c-48.78-13.65-102.23-7.6-166,42.74Zm0,49.53v37.9q69.12-40.26,166-25.69V208.78c-52.93-10.71-108.17-.86-166,32.37Zm0,46.14V327c53.91-14,108.92-16.29,166-14V268.34c-60-5.53-115,1.67-166,19Z"/><path class="cls-1" d="M153.83,48.92a74.69,74.69,0,0,1,11-5.21c5.32-2.08,8.79-2.84,12.25-2.27a9,9,0,0,1,7.59,5.75c1.34,3.44.59,7.43-3.14,10.73l0,.12c4.89-.52,9.45,1.53,11.39,6.51a11,11,0,0,1-.81,9.76c-1.93,3.33-6.14,6.43-13.82,9.42a73.3,73.3,0,0,1-9.68,3.12Zm21.11,28.54a30.19,30.19,0,0,0,3.42-1.21c4-1.54,6.87-4.39,5.28-8.46-1.52-3.9-5.62-4.08-10-2.38l-3,1.16Zm-6.69-17.14,2.87-1.11c4.58-1.79,6.31-4.64,5.19-7.51s-4-3.6-7.93-2.05a25.56,25.56,0,0,0-3.64,1.68Z"/><path class="cls-1" d="M228,53.48c2.26,10.78-4.35,17.32-12.23,19-8.61,1.81-16.42-2.47-18.41-12s3-16.9,12.44-18.88C218.78,39.69,226.1,44.63,228,53.48Zm-21.24,4.77c1.06,5.06,4,8.41,7.87,7.59,3.55-.75,5.1-4.78,4-10.07-.92-4.4-3.54-8.5-7.7-7.63C206.48,49.06,205.8,53.92,206.71,58.25Z"/><path class="cls-1" d="M264.44,51.43c.49,11-7.08,16.39-15.13,16.75-8.79.4-15.81-5.07-16.25-14.78s5.68-16.21,15.33-16.64C257.61,36.35,264,42.4,264.44,51.43ZM242.7,52.72c.23,5.16,2.56,8.93,6.55,8.75,3.63-.16,5.8-3.89,5.56-9.3-.2-4.48-2.13-9-6.37-8.76C244,43.61,242.5,48.29,242.7,52.72Z"/><path class="cls-1" d="M280.6,50.89l.12,0c.81-1.15,1.68-2.29,2.54-3.37l7.06-8.32,11.18,1.25-12,10.91L299.7,70.54l-11.43-1.28-5.85-13.09-2.71,2.67-1,9.35-9.29-1,4.83-43.41,9.3,1Z"/><path class="cls-1" d="M299.82,70.79l1.47-5.46,6.2-3.18c10.46-5.28,15.72-8.51,17.05-13,.85-3.15-.38-6.15-4.84-7.35a14.54,14.54,0,0,0-9.12,1l-.81-7.16a22.2,22.2,0,0,1,13.72-.58c8.73,2.34,12.17,8.74,10.29,15.75C332,57.28,326,61.19,319,64.68l-4.36,2,0,.12,14.55,3.91-2,7.43Z"/><path class="cls-1" d="M346.41,86.2l3.85-8.72-16.21-7.15,2.45-5.57,23.68-16.19,10.46,4.62-9.45,21.44,4.39,1.94L362.75,83l-4.39-1.94-3.85,8.72Zm6.68-15.14,3.57-8.1c1-2.2,2.07-4.4,3.28-6.69l-.22-.1c-2.23,1.84-4.13,3.56-6.38,5.32l-8.42,5.83-.05.12Z"/><path class="cls-1" d="M239,403.18l-37.62,5c-5.83.76-10.72-4.42-10.87-11.53l-2-95c-.16-7.1,4.49-13.55,10.31-14.32l37.62-4.95c5.83-.77,10.72,4.42,10.87,11.53l2,95C249.49,396,244.85,402.41,239,403.18Z"/></svg>